<svg xmlns="http://www.w3.org/2000/svg" width="79.508" height="40"><rect width="100%" height="100%"/><path fill="#fff" d="M0 0v.685c5.16 0 10.01 2.01 13.657 5.658.384.383.74.787 1.086 1.197a41 41 0 0 0-1.877 1.546c.185-.16.367-.324.554-.481C10.19 4.803 5.38 2.385 0 2.385v1.639c4.877 0 9.245 2.203 12.177 5.659.153-.139.313-.27.468-.406a41.2 41.2 0 0 0-6.769 7.675c.204-.299.403-.6.614-.893A7.59 7.59 0 0 0 0 12.399v1.64c2.427 0 4.511 1.462 5.44 3.548.11-.168.228-.33.34-.496a41 41 0 0 0-1.368 2.165c.231.025.46.06.69.088a41 41 0 0 0-1.846-.187c.305.022.61.039.913.07-.365-1.983-2.081-3.49-4.169-3.49v1.64c1.129 0 2.094.717 2.463 1.72q.033.001.068.005A42 42 0 0 0 0 19.016v1.64c5.312 0 10.464 1.04 15.314 3.091A39.2 39.2 0 0 1 27.82 32.18a39.4 39.4 0 0 1 5.756 7.301 41 41 0 0 1 1.766-.224 41 41 0 0 0-1.373-2.172c.113.168.233.332.345.502.93-2.085 3.013-3.547 5.44-3.547 2.426 0 4.51 1.462 5.44 3.547.112-.17.232-.334.345-.502a41 41 0 0 0-1.373 2.172 43 43 0 0 1 1.766.224 39.4 39.4 0 0 1 5.756-7.3 39.22 39.22 0 0 1 27.82-11.524v-1.64a42 42 0 0 0-2.649.09q.1-.009.199-.016a2.62 2.62 0 0 1 2.45-1.713v-1.64c-2.085 0-3.784 1.51-4.151 3.487.344-.034.692-.056 1.039-.082q-1.002.077-1.99.202c.23-.028.459-.063.69-.088a41 41 0 0 0-1.368-2.165c.112.166.23.328.34.496.929-2.086 3.013-3.548 5.44-3.548V12.4a7.59 7.59 0 0 0-6.49 3.66c.211.293.41.594.614.893a41.2 41.2 0 0 0-6.769-7.675c.156.136.315.267.468.406 2.932-3.456 7.3-5.66 12.177-5.66V2.385c-5.38 0-10.189 2.42-13.42 6.22.187.158.369.322.554.482a41 41 0 0 0-1.877-1.546c.347-.41.702-.814 1.086-1.197A19.19 19.19 0 0 1 79.508.685V0H73.34a20.97 20.97 0 0 0-9.903 6.563c.343.243.679.496 1.014.749a41 41 0 0 0-6.108-3.833c.261.133.525.262.782.4a26 26 0 0 1 2.005-2.257A27 27 0 0 1 62.917 0h-2.405c-1.026.975-2.004 1.998-2.87 3.12.096.046.19.099.287.147a41 41 0 0 0-2.005-.926l.126.052A30 30 0 0 1 58.081 0h-2.148c-.49.578-.997 1.144-1.445 1.757.2.078.397.163.597.243-.743-.3-1.495-.584-2.26-.841.282-.398.596-.773.894-1.159h-2.065c-.155.216-.32.425-.47.644q.812.236 1.608.504A41 41 0 0 0 48.66.005c.262.06.527.112.787.175.041-.062.091-.118.133-.18H29.928c.042.062.092.118.133.18.255-.061.513-.113.77-.171q-2.09.464-4.096 1.133a41 41 0 0 1 1.589-.498c-.15-.22-.315-.428-.47-.644h-2.065c.298.386.612.761.893 1.159-.762.256-1.51.539-2.252.838.197-.079.391-.163.59-.24-.45-.613-.955-1.179-1.446-1.757h-2.147a30 30 0 0 1 2.03 2.393q.061-.024.121-.05-1.01.434-1.993.92c.095-.046.187-.098.282-.144C21 2 20.022.975 18.997 0H16.59a27 27 0 0 1 1.787 1.622 26 26 0 0 1 2.005 2.257c.255-.137.515-.264.773-.396a41 41 0 0 0-6.097 3.827c.335-.252.67-.504 1.012-.747A20.97 20.97 0 0 0 6.168 0Zm10.659 0a22.7 22.7 0 0 1 6.827 5.601q.689-.449 1.396-.87c-1.475-1.82-3.226-3.4-5.16-4.731Zm55.127 0c-1.934 1.332-3.686 2.91-5.16 4.732q.707.42 1.396.87A22.7 22.7 0 0 1 68.849 0ZM39.754.656c5.312 0 10.464 1.04 15.314 3.091a39.2 39.2 0 0 1 12.506 8.432 39.4 39.4 0 0 1 5.756 7.302c.117-.018.237-.029.354-.045a41 41 0 0 0-2.215.375l.046-.01C64.832 9.316 53.11 2.355 39.754 2.355S14.676 9.316 7.994 19.802l.044.01a41 41 0 0 0-2.213-.376c.117.016.236.027.353.045a39.4 39.4 0 0 1 5.756-7.302A39.22 39.22 0 0 1 39.754.656m0 3.338a35.9 35.9 0 0 1 25.46 10.546 36 36 0 0 1 4.6 5.64c.266-.065.535-.118.802-.178a41 41 0 0 0-4.18 1.156 42 42 0 0 0-2.271.846c.203-.081.404-.168.608-.247-5.632-7.712-14.738-12.725-25.019-12.725s-19.387 5.013-25.02 12.725c.207.08.409.167.614.25a40.6 40.6 0 0 0-6.443-2.002c.262.059.527.112.788.175a36 36 0 0 1 4.601-5.64 35.9 35.9 0 0 1 25.46-10.546m26.682 17.164a42 42 0 0 1 1.642-.514c-6.18-9.026-16.559-14.951-28.324-14.951s-22.143 5.925-28.323 14.951q.828.24 1.64.514a33 33 0 0 1 3.583-4.258 32.56 32.56 0 0 1 23.1-9.568 32.56 32.56 0 0 1 23.1 9.568 33 33 0 0 1 3.582 4.258M79.508 5.723c-4.4 0-8.333 1.994-10.952 5.124q.588.582 1.153 1.187c2.319-2.848 5.849-4.672 9.799-4.672zM0 5.723v1.64c3.95 0 7.48 1.823 9.8 4.67q.564-.604 1.152-1.186A14.24 14.24 0 0 0 0 5.723m0 3.338v1.64c3.123 0 5.886 1.552 7.573 3.92a43 43 0 0 1 1.074-1.303c-2-2.585-5.125-4.257-8.647-4.257m79.508 0c-3.522 0-6.647 1.672-8.647 4.257q.55.64 1.074 1.304c1.687-2.369 4.45-3.922 7.573-3.922zm-39.754 1.61c7.834 0 15.2 3.05 20.739 8.59a30 30 0 0 1 2.718 3.132q.065-.027.13-.053-1.02.438-2.01.928c.097-.049.192-.102.29-.15-5.054-6.535-12.966-10.749-21.867-10.749-8.9 0-16.813 4.214-21.867 10.75.098.047.193.1.29.149a41 41 0 0 0-2.01-.928q.065.026.13.053a30 30 0 0 1 2.718-3.132c5.54-5.54 12.905-8.59 20.739-8.59m0 3.338c6.943 0 13.47 2.704 18.378 7.613a26 26 0 0 1 2.005 2.257c.259-.14.524-.269.786-.403a41 41 0 0 0-6.131 3.85q.51-.389 1.032-.763c-3.843-4.592-9.613-7.517-16.07-7.517s-12.226 2.925-16.07 7.517c.35.248.691.505 1.032.763a41 41 0 0 0-6.13-3.85c.261.134.526.264.785.403a26 26 0 0 1 2.005-2.257c4.909-4.91 11.435-7.613 18.378-7.613m0 1.699c-7.63 0-14.43 3.523-18.883 9.023q.708.422 1.397.87.691-.84 1.468-1.62a22.5 22.5 0 0 1 16.018-6.634c6.05 0 11.74 2.356 16.018 6.635a23 23 0 0 1 1.469 1.619q.689-.448 1.395-.87c-4.454-5.5-11.253-9.023-18.882-9.023m0 4.977c5.16 0 10.01 2.01 13.657 5.657.384.384.74.788 1.086 1.197a41 41 0 0 0-1.89 1.558c.19-.164.375-.331.567-.492-3.231-3.802-8.04-6.22-13.42-6.22-5.378 0-10.186 2.417-13.417 6.216.211.178.416.363.624.545a41 41 0 0 0-1.95-1.607c.347-.409.702-.813 1.086-1.197a19.19 19.19 0 0 1 13.657-5.657M0 22.355v1.639A35.89 35.89 0 0 1 29.929 40h.94l.288-.064c-.085.018-.166.045-.25.064H48.6c-.084-.019-.164-.046-.249-.064q.144.03.288.064h.94a35.89 35.89 0 0 1 29.929-16.006v-1.64h-.001c-13.356 0-25.078 6.962-31.76 17.448q.048.01.098.022a41 41 0 0 0-3.94-.598c-.367-1.979-2.067-3.488-4.152-3.488s-3.785 1.51-4.151 3.488a41 41 0 0 0-3.942.598q.05-.012.1-.022C25.077 29.316 13.355 22.355 0 22.354Zm39.754 1.669c4.877 0 9.244 2.202 12.177 5.659.156-.142.318-.275.477-.413a41.2 41.2 0 0 0-6.785 7.692c.206-.302.407-.607.62-.904a7.59 7.59 0 0 0-6.489-3.659 7.59 7.59 0 0 0-6.49 3.66c.214.296.415.601.621.903a41.2 41.2 0 0 0-6.815-7.721c.168.148.34.29.507.442 2.932-3.457 7.3-5.66 12.177-5.66zM0 25.693V27.6c.234 0 .465-.014.694-.034.02-.066.045-.13.067-.196 4.14.094 8.161.924 11.954 2.529A32.6 32.6 0 0 1 23.1 36.9c.975.976 1.854 2.022 2.689 3.1h2.065C21.626 31.342 11.479 25.693 0 25.693m79.508 0c-11.479 0-21.626 5.65-27.854 14.307h2.065c.835-1.078 1.714-2.124 2.69-3.1 3-3 6.494-5.356 10.384-7 3.793-1.605 7.814-2.436 11.954-2.53q.035.098.068.196c.228.02.459.034.693.034zm-39.754.03c-4.4 0-8.333 1.994-10.952 5.124a43 43 0 0 1 1.153 1.186c2.32-2.847 5.849-4.671 9.799-4.671s7.48 1.824 9.8 4.671q.564-.604 1.152-1.186a14.24 14.24 0 0 0-10.952-5.124M0 29.03v1.64c7.834 0 15.2 3.05 20.739 8.59.24.24.458.493.688.739h2.148C17.895 33.31 9.463 29.031 0 29.031Zm79.508 0c-9.463 0-17.895 4.28-23.575 10.969h2.148c.23-.246.449-.5.688-.74 5.54-5.539 12.905-8.59 20.739-8.59zm-39.754.03c-3.522 0-6.647 1.672-8.647 4.257q.55.64 1.075 1.304c1.687-2.369 4.449-3.921 7.572-3.921s5.885 1.552 7.573 3.92a42 42 0 0 1 1.074-1.303c-2-2.585-5.125-4.257-8.647-4.257M0 32.37v1.64c6.132 0 11.936 2.116 16.59 5.991h2.407C14.043 35.29 7.375 32.37 0 32.37m79.508 0c-7.374 0-14.043 2.922-18.996 7.631h2.405c4.655-3.875 10.459-5.991 16.591-5.991ZM0 35.709v1.639c3.78 0 7.418.92 10.66 2.653h3.062C9.815 37.31 5.102 35.708 0 35.708Zm79.508 0c-5.103 0-9.815 1.602-13.722 4.292h3.062a22.54 22.54 0 0 1 10.66-2.653zm-39.754 1.67c1.144 0 2.108.74 2.466 1.763-.82-.049-1.633-.125-2.466-.125s-1.646.076-2.466.125a2.62 2.62 0 0 1 2.466-1.764zM0 39.045V40h6.168A20.9 20.9 0 0 0 0 39.046Zm79.508 0a20.9 20.9 0 0 0-6.168.954h6.168z"/></svg>